<mxfile host="app.diagrams.net" modified="2023-11-08T03:35:41.913Z" agent="Mozilla/5.0 (Windows NT 10.0; Win64; x64) AppleWebKit/537.36 (KHTML, like Gecko) Chrome/120.0.0.0 Safari/537.36 Edg/120.0.0.0" etag="rjiQJ4JOrFO3DX9YpNJ7" version="22.0.8" type="github">
  <diagram id="C5RBs43oDa-KdzZeNtuy" name="Page-1">
    <mxGraphModel dx="1379" dy="767" grid="1" gridSize="10" guides="1" tooltips="1" connect="1" arrows="1" fold="1" page="1" pageScale="1" pageWidth="827" pageHeight="1169" math="0" shadow="0">
      <root>
        <mxCell id="WIyWlLk6GJQsqaUBKTNV-0" />
        <mxCell id="WIyWlLk6GJQsqaUBKTNV-1" parent="WIyWlLk6GJQsqaUBKTNV-0" />
        <mxCell id="jspBcGHi9cWMH-_RxN4D-0" value="" style="rounded=0;whiteSpace=wrap;html=1;" vertex="1" parent="WIyWlLk6GJQsqaUBKTNV-1">
          <mxGeometry x="100" y="110" width="380" height="130" as="geometry" />
        </mxCell>
        <mxCell id="jspBcGHi9cWMH-_RxN4D-1" value="电缆线路表" style="rounded=0;whiteSpace=wrap;html=1;" vertex="1" parent="WIyWlLk6GJQsqaUBKTNV-1">
          <mxGeometry x="160" y="160" width="110" height="50" as="geometry" />
        </mxCell>
        <mxCell id="jspBcGHi9cWMH-_RxN4D-2" value="基础数据" style="text;html=1;align=center;verticalAlign=middle;resizable=0;points=[];autosize=1;strokeColor=none;fillColor=none;" vertex="1" parent="WIyWlLk6GJQsqaUBKTNV-1">
          <mxGeometry x="250" y="120" width="70" height="30" as="geometry" />
        </mxCell>
        <mxCell id="jspBcGHi9cWMH-_RxN4D-3" value="站端信息" style="rounded=0;whiteSpace=wrap;html=1;" vertex="1" parent="WIyWlLk6GJQsqaUBKTNV-1">
          <mxGeometry x="304" y="160" width="110" height="50" as="geometry" />
        </mxCell>
        <mxCell id="jspBcGHi9cWMH-_RxN4D-4" value="" style="rounded=0;whiteSpace=wrap;html=1;" vertex="1" parent="WIyWlLk6GJQsqaUBKTNV-1">
          <mxGeometry x="100" y="250" width="380" height="210" as="geometry" />
        </mxCell>
        <mxCell id="jspBcGHi9cWMH-_RxN4D-5" value="配置数据" style="text;html=1;align=center;verticalAlign=middle;resizable=0;points=[];autosize=1;strokeColor=none;fillColor=none;" vertex="1" parent="WIyWlLk6GJQsqaUBKTNV-1">
          <mxGeometry x="250" y="260" width="70" height="30" as="geometry" />
        </mxCell>
        <mxCell id="jspBcGHi9cWMH-_RxN4D-6" value="巡视线路表" style="rounded=0;whiteSpace=wrap;html=1;" vertex="1" parent="WIyWlLk6GJQsqaUBKTNV-1">
          <mxGeometry x="160" y="300" width="110" height="50" as="geometry" />
        </mxCell>
        <mxCell id="jspBcGHi9cWMH-_RxN4D-7" value="打卡点位表" style="rounded=0;whiteSpace=wrap;html=1;" vertex="1" parent="WIyWlLk6GJQsqaUBKTNV-1">
          <mxGeometry x="304" y="300" width="110" height="50" as="geometry" />
        </mxCell>
        <mxCell id="jspBcGHi9cWMH-_RxN4D-8" value="打卡点巡视内容表" style="rounded=0;whiteSpace=wrap;html=1;" vertex="1" parent="WIyWlLk6GJQsqaUBKTNV-1">
          <mxGeometry x="160" y="380" width="110" height="50" as="geometry" />
        </mxCell>
        <mxCell id="jspBcGHi9cWMH-_RxN4D-9" value="巡视班组表" style="rounded=0;whiteSpace=wrap;html=1;" vertex="1" parent="WIyWlLk6GJQsqaUBKTNV-1">
          <mxGeometry x="304" y="380" width="110" height="50" as="geometry" />
        </mxCell>
        <mxCell id="jspBcGHi9cWMH-_RxN4D-10" value="" style="rounded=0;whiteSpace=wrap;html=1;" vertex="1" parent="WIyWlLk6GJQsqaUBKTNV-1">
          <mxGeometry x="515" y="110" width="360" height="350" as="geometry" />
        </mxCell>
        <mxCell id="jspBcGHi9cWMH-_RxN4D-11" value="巡视数据" style="text;html=1;align=center;verticalAlign=middle;resizable=0;points=[];autosize=1;strokeColor=none;fillColor=none;" vertex="1" parent="WIyWlLk6GJQsqaUBKTNV-1">
          <mxGeometry x="660" y="140" width="70" height="30" as="geometry" />
        </mxCell>
        <mxCell id="jspBcGHi9cWMH-_RxN4D-12" value="&lt;span style=&quot;color: rgb(0, 0, 0); font-family: Helvetica; font-size: 12px; font-style: normal; font-variant-ligatures: normal; font-variant-caps: normal; font-weight: 400; letter-spacing: normal; orphans: 2; text-align: center; text-indent: 0px; text-transform: none; widows: 2; word-spacing: 0px; -webkit-text-stroke-width: 0px; background-color: rgb(251, 251, 251); text-decoration-thickness: initial; text-decoration-style: initial; text-decoration-color: initial; float: none; display: inline !important;&quot;&gt;巡视任务表&lt;/span&gt;" style="rounded=0;whiteSpace=wrap;html=1;" vertex="1" parent="WIyWlLk6GJQsqaUBKTNV-1">
          <mxGeometry x="568" y="190" width="110" height="50" as="geometry" />
        </mxCell>
        <mxCell id="jspBcGHi9cWMH-_RxN4D-13" value="巡视打卡点位表" style="rounded=0;whiteSpace=wrap;html=1;" vertex="1" parent="WIyWlLk6GJQsqaUBKTNV-1">
          <mxGeometry x="712" y="190" width="110" height="50" as="geometry" />
        </mxCell>
        <mxCell id="jspBcGHi9cWMH-_RxN4D-14" value="巡视打卡点内容表" style="rounded=0;whiteSpace=wrap;html=1;" vertex="1" parent="WIyWlLk6GJQsqaUBKTNV-1">
          <mxGeometry x="568" y="270" width="110" height="50" as="geometry" />
        </mxCell>
        <mxCell id="jspBcGHi9cWMH-_RxN4D-15" value="巡视任务记录表" style="rounded=0;whiteSpace=wrap;html=1;" vertex="1" parent="WIyWlLk6GJQsqaUBKTNV-1">
          <mxGeometry x="712" y="270" width="110" height="50" as="geometry" />
        </mxCell>
        <mxCell id="jspBcGHi9cWMH-_RxN4D-16" value="巡视打卡点记录表" style="rounded=0;whiteSpace=wrap;html=1;" vertex="1" parent="WIyWlLk6GJQsqaUBKTNV-1">
          <mxGeometry x="568" y="350" width="110" height="50" as="geometry" />
        </mxCell>
        <mxCell id="jspBcGHi9cWMH-_RxN4D-17" value="巡视打卡点内容记录" style="rounded=0;whiteSpace=wrap;html=1;" vertex="1" parent="WIyWlLk6GJQsqaUBKTNV-1">
          <mxGeometry x="712" y="350" width="110" height="50" as="geometry" />
        </mxCell>
      </root>
    </mxGraphModel>
  </diagram>
</mxfile>
